<svg enable-background="new 0 0 191.46 44" viewBox="0 0 191.46 44" xmlns="http://www.w3.org/2000/svg"><g fill="#fff"><path d="m151.68 12.88c-.52-.48-.78-1.08-.78-1.8s.26-1.32.78-1.8 1.2-.73 2.03-.73 1.51.23 2.03.7.79 1.05.79 1.74c0 .76-.26 1.38-.79 1.87-.52.49-1.2.74-2.03.74-.83.01-1.51-.23-2.03-.72"/><path d="m22 0c-12.15 0-22 9.85-22 22s9.85 22 22 22 22-9.85 22-22-9.85-22-22-22m8.37 33.2-8.22-8.22c-.05.01-.1.02-.15.02-1.66 0-3-1.34-3-3 0-.89.39-1.67 1-2.22v-15.65c.66-.08 1.33-.13 2-.13s1.34.04 2 .12v15.66c.61.55 1 1.34 1 2.22 0 .05-.01.1-.02.15l8.21 8.22c-.79 1.07-1.74 2.03-2.82 2.83"/><path d="m61.5 12.76h-7.27v-4.15h19.43v2.43 1.72h-1.71-5.35v17.88h-5.1z"/><path d="m83.78 17.52c1.19 1.05 1.78 2.64 1.78 4.76v8.35h-3.88v-1.98c-.78 1.33-2.23 1.99-4.35 1.99-1.1 0-2.05-.19-2.85-.56-.81-.37-1.42-.88-1.84-1.54-.43-.64-.64-1.39-.64-2.22 0-1.33.5-2.37 1.5-3.13s2.54-1.14 4.63-1.14h3.29c0-.9-.27-1.6-.82-2.08-.55-.49-1.37-.73-2.47-.73-.76 0-1.51.12-2.24.36s-1.67.53-2.18.94v-3.51c.93-.42.54-.33 1.62-.63 1.09-.3 2.21-.45 3.36-.45 2.21-.01 3.91.52 5.09 1.57m-3.53 9.85c.04-.02.08-.05.12-.08.67-.45 1.05-1.21 1.05-2.02v-.82h-2.84c-1.7 0-2.55.56-2.55 1.67 0 .53.21.95.62 1.26.42.31.99.46 1.71.46.72.02 1.34-.14 1.89-.47"/><path d="m101.23 17.55c1.1 1.08 1.66 2.68 1.66 4.79v8.3h-4.2v-7.65c0-1.15-.25-2.01-.75-2.57-.5-.57-1.23-.85-2.18-.85-1.06 0-1.9.33-2.53.98-.63.66-.94 1.63-.94 2.92v7.16h-4.2v-14.7h4.01v1.91c.56-.61 1.25-1.08 2.07-1.41.83-.33 1.73-.5 2.72-.5 1.79.01 3.24.54 4.34 1.62"/><path d="m119.89 15.94v11.86c0 2.57-.64 4.47-1.91 5.72s-3.14 1.87-5.58 1.87c-1.29 0-2.52-.16-3.67-.49-1.16-.33-2.52-1.23-3.28-1.85l2.16-2.26c.56.49 1.06.64 1.92.93s1.72.43 2.58.43c1.34 0 2.33-.32 2.97-.95s.96-1.59.96-2.87v-.6c-1.01 1.16-2.42 1.74-4.22 1.74-1.23 0-2.35-.28-3.36-.85-1.02-.56-1.82-1.36-2.42-2.38s-.89-2.2-.89-3.54c0-1.33.3-2.51.89-3.54.6-1.02 1.4-1.82 2.42-2.38s2.14-.85 3.36-.85c1.94 0 3.41.67 4.42 2v-2h3.65zm-4.8 9.24c.65-.63.98-1.46.98-2.48s-.33-1.85-.98-2.48-1.49-.95-2.52-.95-1.87.32-2.53.95-.99 1.46-.99 2.48.33 1.85.99 2.48 1.51.95 2.53.95c1.03 0 1.86-.31 2.52-.95"/><path d="m146.18 16.48c.86-.36 1.86-.54 2.98-.54v3.92c-.47-.04-.79-.05-.95-.05-1.22 0-2.17.34-2.86 1.02s-1.03 1.7-1.03 3.06l-.1 6.76h-4.25v-14.7h4.16v2.15c.5-.72 1.19-1.26 2.05-1.62"/><path d="m151.61 15.94h4.25v14.7h-4.25z"/><path d="m171.53 17.58c1.1 1.08 1.65 2.67 1.65 4.79v8.28h-4.19v-7.63c0-1.15-.25-2-.75-2.57-.5-.56-1.23-.85-2.18-.85-1.06 0-1.9.33-2.53.98s-.94 1.63-.94 2.92v7.15h-4.19v-14.7h4.01v1.93c.56-.61 1.25-1.08 2.07-1.41s1.73-.5 2.72-.5c1.78-.01 3.22.53 4.33 1.61"/><path d="m179.56 29.73c-1.2-.63-2.13-1.5-2.81-2.62-.67-1.12-1.01-2.38-1.01-3.8s.34-2.69 1.01-3.8c.67-1.12 1.61-1.99 2.81-2.62s2.55-.94 4.05-.94 2.85.31 4.04.94 2.12 1.5 2.79 2.62 1.01 2.38 1.01 3.8-.34 2.69-1.01 3.8c-.67 1.12-1.6 1.99-2.79 2.62s-2.53.94-4.04.94-2.85-.31-4.05-.94m6.68-3.54c.68-.72 1.02-1.68 1.02-2.88 0-1.21-.34-2.17-1.02-2.89s-1.56-1.08-2.62-1.08-1.94.36-2.63 1.08-1.04 1.68-1.04 2.89.35 2.17 1.04 2.88c.69.72 1.57 1.08 2.63 1.08s1.94-.36 2.62-1.08"/><path d="m137.43 24.46h-10.81c.19.89.65 1.58 1.38 2.1.73.51 1.63.77 2.71.77.74 0 1.4-.11 1.98-.33s1.11-.57 1.61-1.05l2.2 2.39c-1.35 1.54-3.31 2.31-5.9 2.31-1.61 0-3.04-.31-4.28-.94s-2.2-1.5-2.87-2.62-1.01-2.38-1.01-3.8c0-1.4.33-2.66 1-3.78.66-1.12 1.58-2 2.74-2.63s2.46-.94 3.89-.94c1.4 0 2.66.3 3.8.9 1.13.6 2.02 1.47 2.67 2.59s.97 2.43.97 3.92c0 .05-.03.42-.08 1.11m-9.69-4.59c-.64.53-1.03 1.26-1.17 2.18h7.04c-.14-.9-.53-1.62-1.17-2.16s-1.42-.81-2.34-.81c-.94-.01-1.72.26-2.36.79"/></g></svg>